<svg width="193" height="166" viewBox="0 0 193 166" fill="none" xmlns="http://www.w3.org/2000/svg">
<g filter="url(#filter0_b_1287_453)">
<rect x="0.21582" y="0.665039" width="192.175" height="165.335" rx="15.0305" fill="white" fill-opacity="0.18"/>
</g>
<ellipse cx="21.1133" cy="18.6006" rx="4.71999" ry="4.75784" fill="#FC5B00"/>
<ellipse cx="39.9934" cy="18.6006" rx="4.71999" ry="4.75784" fill="#ECAA00"/>
<ellipse cx="58.8733" cy="18.6006" rx="4.71999" ry="4.75784" fill="#009D10"/>
<rect width="9.30457" height="23.2668" rx="4.65228" transform="matrix(1 0 0 -1 24.9087 145.528)" fill="#0DBBFC"/>
<rect width="9.30457" height="13.4841" rx="4.65228" transform="matrix(1 0 0 -1 43.5178 135.745)" fill="#0DBBFC"/>
<rect x="62.127" y="59.864" width="9.30457" height="62.3972" rx="4.65228" fill="#0DBBFC"/>
<rect x="80.7361" y="79.1648" width="9.30457" height="43.0964" rx="4.65229" fill="#0DBBFC"/>
<rect x="99.3452" y="39.2412" width="9.30457" height="83.02" rx="4.65229" fill="#95ABBC"/>
<rect x="117.954" y="63.5654" width="9.30457" height="58.6957" rx="4.65229" fill="#0DBBFC"/>
<rect x="136.563" y="52.1965" width="9.30456" height="70.0647" rx="4.65228" fill="#0DBBFC"/>
<rect x="155.173" y="90.2695" width="9.30456" height="31.9918" rx="4.65228" fill="#0DBBFC"/>
<defs>
<filter id="filter0_b_1287_453" x="-68.4948" y="-68.0456" width="329.596" height="302.756" filterUnits="userSpaceOnUse" color-interpolation-filters="sRGB">
<feFlood flood-opacity="0" result="BackgroundImageFix"/>
<feGaussianBlur in="BackgroundImageFix" stdDeviation="34.3553"/>
<feComposite in2="SourceAlpha" operator="in" result="effect1_backgroundBlur_1287_453"/>
<feBlend mode="normal" in="SourceGraphic" in2="effect1_backgroundBlur_1287_453" result="shape"/>
</filter>
</defs>
</svg>
